<svg width="382" height="382" viewBox="0 0 382 382" fill="none" xmlns="http://www.w3.org/2000/svg">
<circle cx="190.855" cy="190.96" r="190.855" fill="#031718"/>
<path d="M275.809 124.776H264.734H116.975H110.819V130.933V150.941V154.208V250.986V257.143H116.975H264.734H270.89V250.986V150.941V139.338L261.282 145.844L190.855 193.529L123.132 147.675V142.536L187.403 186.053L190.855 188.39L194.306 186.053L268.185 136.03L277.027 130.044C277.041 130.334 277.047 130.627 277.047 130.926V130.933V250.986C277.047 254.997 275.785 258.205 273.255 260.95C270.745 263.675 268.012 264.843 264.742 264.839H264.734H116.975C113.707 264.839 110.972 263.669 108.46 260.947C105.933 258.21 104.667 255.003 104.662 250.982V130.933C104.662 126.925 105.924 123.724 108.456 120.986C110.979 118.258 113.718 117.085 116.98 117.08H264.734C267.999 117.08 270.737 118.251 273.259 120.982C274.341 122.155 275.191 123.411 275.809 124.776Z" fill="black" stroke="white" stroke-width="12.3132"/>
</svg>
