<svg width="419" height="755" viewBox="0 0 419 755" fill="none" xmlns="http://www.w3.org/2000/svg">
<g clip-path="url(#clip0_640_12)">
<g opacity="0.6">
<path d="M291.661 632.31L171.292 520.879L186.353 416.346L186.375 416.185L247.455 351.783L196.493 282.959L196.272 282.665L260.152 195.252L255.207 75.2678L255.178 74.5271L443.399 124.666L443.605 124.722L606.013 346.962L799.533 420.629L799.724 420.699L927.219 631.73L927.691 632.513L709.25 634.728H709.11L586.936 580.41L512.224 657.167L512.069 657.327L400.601 665.245H400.483L291.653 632.317L291.661 632.31ZM586.361 579.39L586.656 579.083L709.383 633.645L925.716 631.451L798.892 421.524L605.395 347.863L605.232 347.8L442.861 125.616L256.416 75.9527L261.346 195.532L197.694 282.637L248.686 351.504L248.936 351.839L187.495 416.618L172.529 520.481L292.162 631.318L400.63 664.148L511.501 656.272L586.354 579.376L586.361 579.39Z" fill="url(#paint0_linear_640_12)"/>
<path d="M496.41 596.245L291.963 632.324L291.351 632.429L247.617 351.888L247.521 351.287L434.217 348.974L318.203 299.499L317.952 299.394L254.772 73.7375L606.013 346.976L607.2 347.898L511.229 349.086L709.125 633.002L798.766 420.923L799.864 421.307L709.39 635.371L509.851 349.1L482.277 349.443L506.181 593.429L586.7 579.222L586.921 580.271L506.284 594.498L512.385 656.754L511.221 656.915L496.41 596.238V596.245ZM497.567 596.043L510.403 648.627L505.12 594.708L497.567 596.043ZM436.31 350.016L248.877 352.343L292.346 631.171L496.152 595.204L436.303 350.023L436.31 350.016ZM481.09 349.464L437.511 350.002L497.316 594.994L505.017 593.639L481.09 349.464ZM476.116 298.724L510.484 348.031L604.061 346.871L256.828 76.7494L318.955 298.647L436.907 348.946L480.987 348.401L476.124 298.731L476.116 298.724ZM477.723 303.028L482.166 348.38L509.106 348.045L477.723 303.021V303.028Z" fill="url(#paint1_linear_640_12)"/>
<path d="M368.186 545.317L292.309 632.136L291.388 631.472L368.031 543.779L511.479 655.853L561.189 494.276L561.469 493.375L562.037 493.913L863.936 525.219L709.626 634.617L709.206 634.917L562.051 495.471L512.12 657.761L368.193 545.317H368.186ZM563.304 495.115L709.309 633.47L860.93 525.981L563.304 495.122V495.115Z" fill="url(#paint2_linear_640_12)"/>
<path d="M862.219 526.092L862.647 525.1L559.878 419.336L475.085 453.214L407.329 266.697L466.051 197.027L605.173 347.723L606.08 347.038L466.006 195.322L465.557 195.853L406.017 266.495L406.113 266.76L474.37 454.668L559.907 420.489L862.219 526.092Z" fill="url(#paint3_linear_640_12)"/>
<path d="M400.49 666.677L401.124 664.867L475.291 454.109L474.171 453.781L400.638 662.736L368.584 544.066L368.186 544.017L173.428 520.334L368.466 388.617L367.758 387.765L170.4 521.04L171.837 521.215L367.633 545.03L400.49 666.677Z" fill="url(#paint4_linear_640_12)"/>
<path d="M346.676 348.925L347.192 347.961L200.715 283.699L318.527 299.569L407.483 266.872L407.196 266.355L358.621 179.382L357.567 179.864L405.855 266.32L318.387 298.472L193.258 281.617L346.676 348.925Z" fill="url(#paint5_linear_640_12)"/>
<path d="M368.672 544.709L436.715 350.637L369.785 388.96L370.411 389.868L434.608 353.104L367.544 544.38L368.672 544.709Z" fill="url(#paint6_linear_640_12)"/>
<path d="M631.738 716.655L586.235 579.893L501.052 310.17L476.934 301.456L326.014 361.588L475.674 453.885L368.517 544.939L368.148 545.253L186.581 416.835L185.8 416.283L323.589 361.385L196.655 283.105L195.954 282.672L442.905 124.743L443.583 124.31L502.032 309.38L606.153 347.004L649.541 547.371L928 631.821L764.575 738.933L764.369 739.066L631.752 716.669L631.738 716.655ZM648.833 548.279L648.509 548.181L605.114 347.772L502.437 310.666L587.37 579.593L632.659 715.726L764.074 737.92L925.436 632.163L648.833 548.272V548.279ZM324.739 362.091L188.077 416.541L368.075 543.849L473.787 454.018L324.739 362.098V362.091ZM476.683 300.387L476.912 300.296L500.647 308.87L442.905 126.043L198.025 282.651L324.872 360.875L476.698 300.387H476.683Z" fill="url(#paint7_linear_640_12)"/>
<path d="M260.608 195.916L260.895 194.875L111.316 160.913L84.0518 14.472L259.23 2.12418L357.567 179.864L358.62 179.382L259.93 1.0061L82.6738 13.4937L82.7844 14.0737L110.285 161.779L110.661 161.863L260.608 195.916Z" fill="url(#paint8_linear_640_12)"/>
<path d="M368.001 545.072L367.515 544.995V388.317L260.255 195.699L81.2964 12.6763L256.018 74.7438L479.572 302.77L262.119 196.664L368.635 387.94L368.701 388.051V544.087L585.359 578.964L472.52 452.306L562.022 493.934L561.484 494.884L476.934 455.563L588.255 580.515L368.001 545.065V545.072ZM85.4303 15.2898L261.124 194.966L474.274 298.968L255.458 75.6942L85.4377 15.2898H85.4303Z" fill="url(#paint9_linear_640_12)"/>
<path d="M260.248 0.013979L256.386 75.2609L255.207 75.212L258.906 3.10268L207.811 57.9725L259.076 132.269L109.224 162.192L260.24 0L260.248 0.013979ZM207.023 58.8391L112.378 160.48L257.197 131.556L207.023 58.8321V58.8391Z" fill="url(#paint10_linear_640_12)"/>
</g>
</g>
<defs>
<linearGradient id="paint0_linear_640_12" x1="369.659" y1="39.9273" x2="579.827" y2="737.295" gradientUnits="userSpaceOnUse">
<stop stop-color="#02C48F"/>
<stop offset="1"/>
</linearGradient>
<linearGradient id="paint1_linear_640_12" x1="381.019" y1="35.5946" x2="574.049" y2="676.096" gradientUnits="userSpaceOnUse">
<stop stop-color="#02C48F"/>
<stop offset="1"/>
</linearGradient>
<linearGradient id="paint2_linear_640_12" x1="547.92" y1="489.478" x2="601.508" y2="667.292" gradientUnits="userSpaceOnUse">
<stop stop-color="#02C48F"/>
<stop offset="1"/>
</linearGradient>
<linearGradient id="paint3_linear_640_12" x1="557.887" y1="167.544" x2="682.27" y2="580.268" gradientUnits="userSpaceOnUse">
<stop stop-color="#02C48F"/>
<stop offset="1"/>
</linearGradient>
<linearGradient id="paint4_linear_640_12" x1="296.602" y1="409.119" x2="376.388" y2="673.861" gradientUnits="userSpaceOnUse">
<stop stop-color="#02C48F"/>
<stop offset="1"/>
</linearGradient>
<linearGradient id="paint5_linear_640_12" x1="276.862" y1="203.932" x2="322.71" y2="356.062" gradientUnits="userSpaceOnUse">
<stop stop-color="#02C48F"/>
<stop offset="1"/>
</linearGradient>
<linearGradient id="paint6_linear_640_12" x1="375.829" y1="368.898" x2="423.782" y2="528.012" gradientUnits="userSpaceOnUse">
<stop stop-color="#02C48F"/>
<stop offset="1"/>
</linearGradient>
<linearGradient id="paint7_linear_640_12" x1="424.84" y1="129.859" x2="621.401" y2="782.076" gradientUnits="userSpaceOnUse">
<stop stop-color="#02C48F"/>
<stop offset="1"/>
</linearGradient>
<linearGradient id="paint8_linear_640_12" x1="172.739" y1="-13.748" x2="241.596" y2="214.729" gradientUnits="userSpaceOnUse">
<stop stop-color="#02C48F"/>
<stop offset="1"/>
</linearGradient>
<linearGradient id="paint9_linear_640_12" x1="226.388" y1="-31.1552" x2="425.493" y2="629.505" gradientUnits="userSpaceOnUse">
<stop stop-color="#02C48F"/>
<stop offset="1"/>
</linearGradient>
<linearGradient id="paint10_linear_640_12" x1="167.012" y1="28.0204" x2="203.458" y2="148.954" gradientUnits="userSpaceOnUse">
<stop/>
<stop offset="1" stop-color="#02C48F"/>
</linearGradient>
<clipPath id="clip0_640_12">
<rect width="419" height="755" fill="white"/>
</clipPath>
</defs>
</svg>
