<svg width="528" height="506" viewBox="0 0 528 506" fill="none" xmlns="http://www.w3.org/2000/svg">
<g clip-path="url(#clip0_629_31)">
<path d="M-162.616 372.276L-162.58 372.173L-85.5825 295.236L-133.071 219.432L-133.173 219.269L-112.348 134.045L-112.324 133.955L-57.0196 61.3775L-56.9533 61.287L68.4374 0.808094L68.6484 0.705577L154.813 39.2678L154.946 39.3281L195.191 101.731L267.008 81.702L267.316 81.6175L326.655 152.126L431.064 179.802L431.709 179.977L341.931 307.286L341.835 307.424L110.449 370.491L-0.876984 495.604L-0.985535 495.725L-214.869 535.825L-162.623 372.288L-162.616 372.276ZM109.816 369.779L109.913 369.67L341.244 306.622L430.171 180.514L326.257 152.97L326.106 152.928L266.972 82.673L194.757 102.817L154.277 40.0519L68.6665 1.73686L-56.308 62.0107L-111.425 134.347L-132.136 219.118L-84.3702 295.362L-161.718 372.656L-213.458 534.618L-1.48611 494.88L109.828 369.785L109.816 369.779Z" fill="url(#paint0_linear_629_31)"/>
<path d="M-163.208 372.197L132.45 298.173L138.994 277.511L-76.7591 231.566L-84.4969 295.35L-85.4558 295.242L-77.7059 231.367L-132.757 219.643L-132.606 218.732L-76.753 223.545L-57.0437 61.112L195.064 101.815L195.607 101.906L151.315 241.789L222.62 168.174L222.777 168.012L432.499 179.863L110.443 370.466L109.358 371.106L132.125 299.204L-161.097 372.626L-0.931244 494.934L-1.53433 495.658L-163.201 372.203L-163.208 372.197ZM223.169 168.958L150.67 243.803L140.212 276.829L184.136 286.183L133.21 298.933L111.01 369.043L429.387 180.616L223.157 168.958H223.169ZM139.935 277.716L133.542 297.895L180.041 286.255L139.935 277.716ZM-75.9087 224.546L-76.6505 230.65L139.272 276.63L149.609 243.978L-75.9087 224.546ZM-56.2114 62.1795L-75.8002 223.63L149.892 243.073L194.359 102.641L-56.2054 62.1855L-56.2114 62.1795ZM-125.279 220.294L-77.5974 230.451L-76.8737 224.468L-125.279 220.294Z" fill="url(#paint1_linear_629_31)"/>
<path d="M-162.604 372.572L-162.755 372.179L-6.35919 298.848L-133.553 219.179L-1.17252 141.204L-57.0257 61.9022L-56.2235 61.3896L-28.1552 101.239L-0.0869141 141.089L0.196503 141.487L-131.744 219.209L-4.40515 298.969L-5.00824 299.253L-106.287 515.259L-106.769 516.284L-162.598 372.572H-162.604ZM-161.549 372.644L-106.691 513.854L-6.37128 299.886L-161.549 372.644Z" fill="url(#paint2_linear_629_31)"/>
<path d="M50.7122 244.949L51.2731 244.195L-110.201 134.721L-0.195435 141.825L-0.0567322 141.542L68.5882 2.44255L133.512 182.372L134.423 182.07L68.7269 0L68.2263 1.02524L-0.786499 140.866L-113.554 133.581L50.7122 244.949Z" fill="url(#paint3_linear_629_31)"/>
<path d="M228.542 243.303L229.061 243.224L315.896 229.721L315.745 228.81L229.423 242.235L223.458 168.573L267.322 81.6115L173.051 176.491L173.751 177.125L265.332 84.6512L222.475 168.398L222.487 168.518L228.542 243.303Z" fill="url(#paint4_linear_629_31)"/>
<path d="M149.265 243.212L132.891 183.264L131.956 183.493L147.661 240.999L-0.213623 140.969L-0.774506 141.723L149.265 243.212Z" fill="url(#paint5_linear_629_31)"/>
<path d="M-265.934 386.292L-266 386.105L-213.862 293.029L-84.9673 294.838L168.112 301.792L181.585 286.075L167.286 157.765L51.2852 244.931L50.8087 245.287L-1.11218 141.186L155.006 38.8638L168.064 156.01L266.851 81.7744L267.4 81.3643L342.209 307.497L168.558 302.726L110.389 370.563L-72.6821 350.552L-213.778 535.481L-214.332 536.205L-265.94 386.286L-265.934 386.292ZM109.979 369.592L167.34 302.696L-84.9854 295.761L-213.283 293.963L-264.951 386.195L-214.001 534.214L-73.2913 349.792L-73.1284 349.575L109.979 369.592ZM168.184 157.096L182.568 286.171L182.592 286.364L169.336 301.828L340.882 306.544L266.906 82.9203L168.19 157.096H168.184ZM154.222 40.5042L0.118134 141.505L51.1706 243.852L167.171 156.686L154.222 40.5042Z" fill="url(#paint6_linear_629_31)"/>
<path d="M315.896 229.721L493.768 202.72L526.963 67.2275L526.444 67.1552L392.592 49.0622L325.973 152.283L326.794 152.765L393.086 50.0573L525.787 67.9935L492.978 201.912L315.745 228.81L315.896 229.721Z" fill="url(#paint7_linear_629_31)"/>
<path d="M-5.73196 298.583L49.0417 245.788L-86.0107 296.171L-0.925232 141.132L-0.738251 140.788L134 181.745L326.239 152.078L528 66.4075L431.311 180.526L431.239 180.611L179.794 287.691L324.942 153.206L133.928 182.685L-0.261841 141.898L-83.9601 294.416L52.9316 243.345L-5.05045 299.235L-5.73795 298.583H-5.73196ZM524.737 68.8079L326.661 152.91L184.383 284.736L430.648 179.863L524.743 68.8139L524.737 68.8079Z" fill="url(#paint8_linear_629_31)"/>
<path d="M430.78 180.671L431.112 179.802L492.206 201.411L457.678 148.954L381.073 167.776L392.592 49.0682L494.534 203.227L430.774 180.677L430.78 180.671ZM393.189 50.962L382.164 166.558L457.142 148.14L393.189 50.968V50.962Z" fill="url(#paint9_linear_629_31)"/>
</g>
<defs>
<linearGradient id="paint0_linear_629_31" x1="528.007" y1="268.096" x2="-265.993" y2="268.096" gradientUnits="userSpaceOnUse">
<stop stop-color="#02C48F"/>
<stop offset="1" stop-opacity="0.7"/>
</linearGradient>
<linearGradient id="paint1_linear_629_31" x1="527.992" y1="268.102" x2="-266" y2="268.102" gradientUnits="userSpaceOnUse">
<stop stop-color="#02C48F"/>
<stop offset="1" stop-opacity="0.7"/>
</linearGradient>
<linearGradient id="paint2_linear_629_31" x1="527.941" y1="268.102" x2="-266.029" y2="268.102" gradientUnits="userSpaceOnUse">
<stop stop-color="#02C48F"/>
<stop offset="1" stop-opacity="0.7"/>
</linearGradient>
<linearGradient id="paint3_linear_629_31" x1="131.01" y1="0" x2="131.01" y2="536.205" gradientUnits="userSpaceOnUse">
<stop stop-color="#FF9400"/>
<stop offset="1" stop-opacity="0.7"/>
</linearGradient>
<linearGradient id="paint4_linear_629_31" x1="528" y1="268.102" x2="-266" y2="268.102" gradientUnits="userSpaceOnUse">
<stop stop-color="#02C48F"/>
<stop offset="1" stop-opacity="0.7"/>
</linearGradient>
<linearGradient id="paint5_linear_629_31" x1="527.968" y1="268.118" x2="-266" y2="268.118" gradientUnits="userSpaceOnUse">
<stop stop-color="#02C48F"/>
<stop offset="1" stop-opacity="0.7"/>
</linearGradient>
<linearGradient id="paint6_linear_629_31" x1="527.992" y1="268.109" x2="-266" y2="268.109" gradientUnits="userSpaceOnUse">
<stop stop-color="#02C48F"/>
<stop offset="1" stop-opacity="0.7"/>
</linearGradient>
<linearGradient id="paint7_linear_629_31" x1="528" y1="268.111" x2="-266" y2="268.111" gradientUnits="userSpaceOnUse">
<stop stop-color="#02C48F"/>
<stop offset="1" stop-opacity="0.7"/>
</linearGradient>
<linearGradient id="paint8_linear_629_31" x1="528.016" y1="268.109" x2="-266" y2="268.109" gradientUnits="userSpaceOnUse">
<stop stop-color="#02C48F"/>
<stop offset="1" stop-opacity="0.7"/>
</linearGradient>
<linearGradient id="paint9_linear_629_31" x1="437.806" y1="49.0622" x2="437.806" y2="203.221" gradientUnits="userSpaceOnUse">
<stop stop-color="#FF9400"/>
<stop offset="1" stop-opacity="0.7"/>
</linearGradient>
<clipPath id="clip0_629_31">
<rect width="528" height="506" fill="white"/>
</clipPath>
</defs>
</svg>
