<svg width="185" height="83" viewBox="0 0 185 83" fill="none" xmlns="http://www.w3.org/2000/svg">
<g opacity="0.5">
<path d="M22.5381 31.6855C20.9339 33.9998 21.0573 37.4641 22.6638 39.776C24.2702 42.0879 27.3062 43.2869 30.0744 42.7631C32.8426 42.2392 35.2593 39.9832 36.0695 37.2848" fill="url(#paint0_linear_592_12)"/>
</g>
<path d="M22.2867 31.5388C20.3077 34.4397 20.8735 38.7375 23.4345 41.103C24.694 42.2671 26.3354 42.9748 28.0396 43.1424C29.7555 43.3101 31.4737 42.8538 32.9102 41.9062C34.5329 40.8375 35.7809 39.2241 36.3513 37.3639C36.4607 37.0053 35.8996 36.8517 35.7902 37.2102C34.8589 40.2415 31.937 42.614 28.7195 42.5977C27.1246 42.5883 25.5229 42.0366 24.2656 41.0517C22.9875 40.0506 22.1563 38.6327 21.8327 37.0473C21.4718 35.2708 21.7582 33.3454 22.7896 31.8344C23.0014 31.5248 22.4962 31.2338 22.2867 31.5411V31.5388Z" fill="#3DB18A"/>
<g opacity="0.5">
<path d="M33.0917 35.5292C33.2081 37.4826 31.7926 39.5244 29.8974 40.018C28.0023 40.5116 25.8277 39.5081 24.9756 37.7457C24.1235 35.9832 24.9058 33.4478 26.468 32.2698L27.8859 32.5235L33.0894 35.5316L33.0917 35.5292Z" fill="url(#paint1_linear_592_12)"/>
</g>
<path d="M32.8007 35.5293C32.9101 37.7713 31.0522 39.9342 28.7497 39.8481C27.6787 39.8085 26.6287 39.3265 25.8906 38.5513C25.1526 37.776 24.8243 36.705 24.9477 35.6177C25.0804 34.4443 25.6741 33.2476 26.6194 32.5189L26.3959 32.5492L27.1036 32.6749L27.5693 32.7587C27.6182 32.768 27.667 32.7797 27.7183 32.7843C27.7346 32.7843 27.8603 32.8146 27.7765 32.7843C27.7043 32.7611 27.7765 32.789 27.7997 32.803C27.851 32.8356 27.9069 32.8635 27.9581 32.8938L28.5285 33.222L32.0091 35.2336C32.3211 35.4152 32.6354 35.5968 32.9474 35.7761C33.2594 35.9553 33.5667 35.4618 33.2407 35.2732C32.2489 34.6981 31.2548 34.1254 30.263 33.5503L28.4703 32.5143C28.3352 32.4351 28.2002 32.3443 28.0605 32.2768C27.8999 32.1976 27.709 32.1883 27.532 32.1557C27.2154 32.0999 26.8941 32.0207 26.5751 31.9858C26.1607 31.9392 25.73 32.5259 25.4972 32.8216C24.7871 33.7203 24.3657 34.8634 24.3401 36.0112C24.2865 38.3604 26.2399 40.1973 28.5122 40.4115C31.2106 40.6653 33.5131 38.1671 33.3851 35.5246C33.3665 35.1521 32.7844 35.1498 32.803 35.5246L32.8007 35.5293Z" fill="#3DB18A"/>
<g opacity="0.5">
<path d="M65.4745 31.6179C67.0787 33.9321 66.9553 37.3965 65.3488 39.7084C63.7424 42.0203 60.7064 43.2193 57.9382 42.6954C55.1723 42.1693 52.7533 39.9156 51.9431 37.2172" fill="url(#paint2_linear_592_12)"/>
</g>
<path d="M65.2231 31.7646C67.0531 34.4467 66.5548 38.3906 64.1987 40.5931C63.0346 41.6804 61.4771 42.3625 59.8892 42.4999C58.2921 42.6373 56.7322 42.2159 55.3982 41.3358C53.9058 40.3533 52.7487 38.8516 52.2225 37.1404C52.1131 36.7842 51.552 36.9355 51.6614 37.2941C52.6718 40.5861 55.8428 43.1471 59.3351 43.1075C61.0463 43.0889 62.7413 42.4929 64.0893 41.4429C65.4676 40.3719 66.3919 38.8377 66.7388 37.1311C67.1299 35.208 66.8412 33.108 65.7237 31.4713C65.5141 31.1639 65.0089 31.455 65.2208 31.7646H65.2231Z" fill="#3DB18A"/>
<g opacity="0.5">
<path d="M54.9209 35.4619C54.8045 37.4152 56.22 39.457 58.1152 39.9506C60.0103 40.4442 62.1848 39.4407 63.0369 37.6783C63.8891 35.9159 63.1068 33.3805 61.5446 32.2024L60.1267 32.4562L54.9232 35.4642L54.9209 35.4619Z" fill="url(#paint3_linear_592_12)"/>
</g>
<path d="M54.6298 35.4618C54.5181 37.7946 56.3131 40.0832 58.6646 40.3416C60.8926 40.5861 63.2814 39.0029 63.6236 36.7283C63.7912 35.6201 63.5375 34.4653 63.002 33.4851C62.7319 32.9916 62.3804 32.5306 61.9566 32.1627C61.7913 32.0184 61.6679 31.895 61.4398 31.9229C61.3024 31.9392 61.165 31.9718 61.03 31.9951C60.6133 32.0696 60.1732 32.0859 59.8054 32.3001C59.2932 32.5958 58.781 32.8938 58.2665 33.1895C57.1024 33.8623 55.9383 34.5352 54.7742 35.208C54.4506 35.3966 54.7439 35.8995 55.0675 35.7109C55.894 35.2336 56.7182 34.7563 57.5447 34.279C58.4457 33.7575 59.3328 33.1918 60.2571 32.7098C60.2966 32.6889 60.2524 32.7215 60.2058 32.7285C60.2361 32.7238 60.2664 32.7145 60.2966 32.7122C60.455 32.6959 60.6156 32.6563 60.7716 32.6284L61.619 32.477L61.3955 32.4468C63.0555 33.7249 63.7098 36.4512 62.385 38.1764C61.0184 39.9575 58.3037 40.3417 56.6251 38.7934C55.7054 37.9459 55.1513 36.7167 55.2119 35.4594C55.2305 35.0846 54.6485 35.0869 54.6298 35.4594V35.4618Z" fill="#3DB18A"/>
<path d="M36.172 37.2848L28.0047 32.7635L22.5358 31.6855L25.9838 33.1919L36.1696 37.2848H36.172Z" fill="#041718"/>
<path d="M62.0754 33.1919L65.5234 31.6855L60.0545 32.7635L51.8872 37.2848L62.073 33.1919H62.0754Z" fill="#041718"/>
<path d="M44.0552 41.3708L29.653 33.5365L18.2472 24.0887L12.0263 12.4524L8.57593 2.42722C8.4991 2.20138 8.75054 2.00349 8.95077 2.13387L26.3121 13.3744L44.0552 8.65047" stroke="#3DB18A" stroke-width="0.698456" stroke-miterlimit="10"/>
<path d="M44.0552 41.3709L58.4574 33.5365L69.8632 24.0887L76.0841 12.4525L79.5461 2.39002C79.6206 2.17583 79.3808 1.98957 79.1922 2.11297L61.7983 13.3744L44.0552 8.65052" stroke="#3DB18A" stroke-width="0.698456" stroke-miterlimit="10"/>
<path d="M12.0263 12.4524L5.11157 7.73314C5.0068 7.66097 4.87409 7.76807 4.92066 7.88448L9.37681 19.2484L4.01732 20.5359C3.89393 20.5661 3.88229 20.7361 3.9987 20.7826L13.5233 24.5473L29.653 33.5341L18.2472 24.0863L12.0263 12.4501V12.4524Z" stroke="#3DB18A" stroke-width="0.698456" stroke-miterlimit="10"/>
<path d="M76.0841 12.4524L82.9476 7.76806C83.0687 7.68658 83.2223 7.80764 83.1688 7.945L78.7359 19.2507L84.0675 20.5312C84.2002 20.5638 84.2118 20.7454 84.0861 20.7966L74.5871 24.552L58.4574 33.5388L69.8632 24.091L76.0841 12.4547V12.4524Z" stroke="#3DB18A" stroke-width="0.698456" stroke-miterlimit="10"/>
<path d="M74.5847 24.5496L83.4574 38.3743L71.4743 57.9591L50.4507 52.2713L44.0552 41.3707L74.5847 24.5496Z" stroke="#3DB18A" stroke-width="0.698456" stroke-miterlimit="10"/>
<path d="M13.5257 24.6638L4.65295 38.4909L16.6361 58.0756L37.5759 52.4019L44.0552 41.485L13.5257 24.6638Z" stroke="#3DB18A" stroke-width="0.698456" stroke-miterlimit="10"/>
<path d="M44.0132 41.3708L50.4507 52.481L44.0132 70.5966L37.5758 52.6137L44.0132 41.3708Z" stroke="#3DB18A" stroke-width="0.798569" stroke-miterlimit="10"/>
<path d="M44.0552 8.65039V41.3708L26.4169 13.5373C26.3959 13.5023 26.3401 13.5233 26.347 13.5652L29.986 33.7366" stroke="#3DB18A" stroke-width="0.698456" stroke-miterlimit="10"/>
<path d="M44.0552 16.0237L34.1953 11.4139C34.1394 11.3883 34.0836 11.4511 34.1162 11.5023L44.0552 27.8905L33.001 23.9279L29.986 33.7342" stroke="#3DB18A" stroke-width="0.698456" stroke-miterlimit="10"/>
<path d="M29.986 33.7344L44.0552 27.8906" stroke="#3DB18A" stroke-width="0.698456" stroke-miterlimit="10"/>
<path d="M44.0552 8.65039V41.3708L61.5957 13.6956C61.64 13.6281 61.7448 13.6676 61.7308 13.7491L58.1244 33.7366" stroke="#3DB18A" stroke-width="0.698456" stroke-miterlimit="10"/>
<path d="M44.0552 16.0239L53.7451 11.4933C53.8522 11.4444 53.9593 11.5631 53.8964 11.6632L44.0529 27.8907L55.1071 23.9281L58.1221 33.7345" stroke="#3DB18A" stroke-width="0.698456" stroke-miterlimit="10"/>
<path d="M58.1244 33.7344L44.0552 27.8906" stroke="#3DB18A" stroke-width="0.698456" stroke-miterlimit="10"/>
<path d="M7.18131 13.6513L2.00342 13.1438L7.71679 19.6488" stroke="#3DB18A" stroke-width="0.698456" stroke-miterlimit="10"/>
<path d="M3.61694 20.6313L6.15932 17.8748" stroke="#3DB18A" stroke-width="0.698456" stroke-miterlimit="10"/>
<path d="M29.986 33.7343L8.34082 1.73804" stroke="#3DB18A" stroke-width="0.698456" stroke-miterlimit="10"/>
<path d="M9.37683 19.2506L18.2496 24.0886L14.8271 11.3254L26.3121 13.3742" stroke="#3DB18A" stroke-width="0.698456" stroke-miterlimit="10"/>
<path d="M80.929 13.6235L86.1069 13.116L80.3936 19.6186" stroke="#3DB18A" stroke-width="0.698456" stroke-miterlimit="10"/>
<path d="M84.4934 20.6033L81.951 17.8467" stroke="#3DB18A" stroke-width="0.698456" stroke-miterlimit="10"/>
<path d="M58.1244 33.7042L79.7696 1.71021" stroke="#3DB18A" stroke-width="0.698456" stroke-miterlimit="10"/>
<path d="M78.7336 19.2204L69.8632 24.0607L73.2833 11.2976L61.7983 13.3464" stroke="#3DB18A" stroke-width="0.698456" stroke-miterlimit="10"/>
<path d="M74.5847 24.5496L65.542 31.576L60.0056 32.6726" stroke="#3DB18A" stroke-width="0.698456" stroke-miterlimit="10"/>
<path d="M28.0465 32.6726L22.5101 31.576L13.4674 24.5496" stroke="#3DB18A" stroke-width="0.698456" stroke-miterlimit="10"/>
<path d="M51.9617 37.215L52.9255 43.5594L61.9123 48.8001L71.4742 38.605L65.542 31.5762" stroke="#3DB18A" stroke-width="0.698456" stroke-miterlimit="10"/>
<path d="M22.4892 31.5762L16.557 38.605L26.1189 48.8001L35.1057 43.5594L36.0696 37.215" stroke="#3DB18A" stroke-width="0.698456" stroke-miterlimit="10"/>
<path d="M4.65295 38.4907L16.557 38.6048" stroke="#3DB18A" stroke-width="0.698456" stroke-miterlimit="10"/>
<path d="M50.4507 52.5205L54.3574 65.6096L44.0552 81.1107" stroke="#3DB18A" stroke-width="0.705441" stroke-miterlimit="10"/>
<path d="M37.5758 52.6533L33.9834 65.6445L43.6989 80.5612C43.806 80.7242 44.0551 80.6474 44.0551 80.4518V41.3708" stroke="#3DB18A" stroke-width="0.705441" stroke-miterlimit="10"/>
<path d="M71.4743 57.9592L54.3574 65.0695" stroke="#3DB18A" stroke-width="0.698456" stroke-miterlimit="10"/>
<path d="M61.9124 48.8001L50.4507 52.2714L52.9256 43.5593L44.0552 41.3708L35.1056 43.5593L37.5758 52.4018L26.1188 48.8001L16.6361 58.0756L33.9834 65.1021" stroke="#3DB18A" stroke-width="0.698456" stroke-miterlimit="10"/>
<path d="M83.4574 38.3745L71.4742 38.605" stroke="#3DB18A" stroke-width="0.698456" stroke-miterlimit="10"/>
<path d="M44.0552 41.3709L28.0466 32.6402L22.5171 31.5995L13.5256 24.6638" stroke="url(#paint4_linear_592_12)" stroke-width="0.698456" stroke-miterlimit="10"/>
<path d="M74.5452 24.6589L65.5537 31.5946L60.0219 32.6353L44.0156 41.3637" stroke="url(#paint5_linear_592_12)" stroke-width="0.698456" stroke-miterlimit="10"/>
<path d="M61.8589 48.8303L71.4208 57.8777" stroke="#3DB18A" stroke-width="0.698456" stroke-miterlimit="10"/>
<path d="M44.0017 9.45842C44.4929 9.45842 44.891 9.06024 44.891 8.56906C44.891 8.07787 44.4929 7.67969 44.0017 7.67969C43.5105 7.67969 43.1123 8.07787 43.1123 8.56906C43.1123 9.06024 43.5105 9.45842 44.0017 9.45842Z" fill="#3DB18A" stroke="white" stroke-width="0.232819" stroke-miterlimit="10"/>
<path d="M16.8131 58.8835C17.3043 58.8835 17.7024 58.4853 17.7024 57.9941C17.7024 57.5029 17.3043 57.1047 16.8131 57.1047C16.3219 57.1047 15.9237 57.5029 15.9237 57.9941C15.9237 58.4853 16.3219 58.8835 16.8131 58.8835Z" fill="#3DB18A" stroke="white" stroke-width="0.232819" stroke-miterlimit="10"/>
<path d="M71.4207 58.767C71.9119 58.767 72.3101 58.3688 72.3101 57.8777C72.3101 57.3865 71.9119 56.9883 71.4207 56.9883C70.9295 56.9883 70.5314 57.3865 70.5314 57.8777C70.5314 58.3688 70.9295 58.767 71.4207 58.767Z" fill="#3DB18A" stroke="white" stroke-width="0.232819" stroke-miterlimit="10"/>
<path d="M44.0017 42.4115C44.4929 42.4115 44.891 42.0134 44.891 41.5222C44.891 41.031 44.4929 40.6328 44.0017 40.6328C43.5105 40.6328 43.1123 41.031 43.1123 41.5222C43.1123 42.0134 43.5105 42.4115 44.0017 42.4115Z" fill="#3DB18A" stroke="white" stroke-width="0.232819" stroke-miterlimit="10"/>
<path d="M44.0551 81.9999C44.5463 81.9999 44.9445 81.6017 44.9445 81.1106C44.9445 80.6194 44.5463 80.2212 44.0551 80.2212C43.564 80.2212 43.1658 80.6194 43.1658 81.1106C43.1658 81.6017 43.564 81.9999 44.0551 81.9999Z" fill="#3DB18A" stroke="white" stroke-width="0.232819" stroke-miterlimit="10"/>
<path d="M79.716 2.77874C80.2072 2.77874 80.6054 2.38055 80.6054 1.88937C80.6054 1.39818 80.2072 1 79.716 1C79.2248 1 78.8267 1.39818 78.8267 1.88937C78.8267 2.38055 79.2248 2.77874 79.716 2.77874Z" fill="#3DB18A" stroke="white" stroke-width="0.232819" stroke-miterlimit="10"/>
<path d="M8.55026 3.01165C9.04144 3.01165 9.43963 2.61346 9.43963 2.12228C9.43963 1.63109 9.04144 1.23291 8.55026 1.23291C8.05907 1.23291 7.66089 1.63109 7.66089 2.12228C7.66089 2.61346 8.05907 3.01165 8.55026 3.01165Z" fill="#3DB18A" stroke="white" stroke-width="0.232819" stroke-miterlimit="10"/>
<path d="M33.9531 12.0264C34.2566 12.0264 34.5026 11.7804 34.5026 11.4769C34.5026 11.1735 34.2566 10.9275 33.9531 10.9275C33.6497 10.9275 33.4037 11.1735 33.4037 11.4769C33.4037 11.7804 33.6497 12.0264 33.9531 12.0264Z" fill="#3DB18A" stroke="white" stroke-width="0.232819" stroke-miterlimit="10"/>
<path d="M54.0803 12.0264C54.3838 12.0264 54.6298 11.7804 54.6298 11.4769C54.6298 11.1735 54.3838 10.9275 54.0803 10.9275C53.7769 10.9275 53.5309 11.1735 53.5309 11.4769C53.5309 11.7804 53.7769 12.0264 54.0803 12.0264Z" fill="#3DB18A" stroke="white" stroke-width="0.232819" stroke-miterlimit="10"/>
<path d="M61.7424 13.8445C62.0459 13.8445 62.2919 13.5985 62.2919 13.2951C62.2919 12.9916 62.0459 12.7456 61.7424 12.7456C61.439 12.7456 61.193 12.9916 61.193 13.2951C61.193 13.5985 61.439 13.8445 61.7424 13.8445Z" fill="#3DB18A" stroke="white" stroke-width="0.232819" stroke-miterlimit="10"/>
<path d="M54.7393 24.7893C55.0427 24.7893 55.2887 24.5433 55.2887 24.2399C55.2887 23.9364 55.0427 23.6904 54.7393 23.6904C54.4358 23.6904 54.1898 23.9364 54.1898 24.2399C54.1898 24.5433 54.4358 24.7893 54.7393 24.7893Z" fill="#3DB18A" stroke="white" stroke-width="0.232819" stroke-miterlimit="10"/>
<path d="M44.0016 28.1258C44.3051 28.1258 44.5511 27.8798 44.5511 27.5763C44.5511 27.2729 44.3051 27.0269 44.0016 27.0269C43.6982 27.0269 43.4521 27.2729 43.4521 27.5763C43.4521 27.8798 43.6982 28.1258 44.0016 28.1258Z" fill="#3DB18A" stroke="white" stroke-width="0.232819" stroke-miterlimit="10"/>
<path d="M33.9834 65.6211C34.2869 65.6211 34.5329 65.3751 34.5329 65.0717C34.5329 64.7682 34.2869 64.5222 33.9834 64.5222C33.68 64.5222 33.434 64.7682 33.434 65.0717C33.434 65.3751 33.68 65.6211 33.9834 65.6211Z" fill="#3DB18A" stroke="white" stroke-width="0.232819" stroke-miterlimit="10"/>
<path d="M52.872 44.26C53.1754 44.26 53.4214 44.014 53.4214 43.7106C53.4214 43.4071 53.1754 43.1611 52.872 43.1611C52.5685 43.1611 52.3225 43.4071 52.3225 43.7106C52.3225 44.014 52.5685 44.26 52.872 44.26Z" fill="#3DB18A" stroke="white" stroke-width="0.232819" stroke-miterlimit="10"/>
<path d="M50.4507 52.8208C50.7541 52.8208 51.0002 52.5748 51.0002 52.2714C51.0002 51.9679 50.7541 51.7219 50.4507 51.7219C50.1472 51.7219 49.9012 51.9679 49.9012 52.2714C49.9012 52.5748 50.1472 52.8208 50.4507 52.8208Z" fill="#3DB18A" stroke="white" stroke-width="0.232819" stroke-miterlimit="10"/>
<path d="M44.0132 70.6804C44.3166 70.6804 44.5626 70.4345 44.5626 70.131C44.5626 69.8275 44.3166 69.5815 44.0132 69.5815C43.7097 69.5815 43.4637 69.8275 43.4637 70.131C43.4637 70.4345 43.7097 70.6804 44.0132 70.6804Z" fill="#3DB18A" stroke="white" stroke-width="0.232819" stroke-miterlimit="10"/>
<path d="M37.5758 52.9512C37.8793 52.9512 38.1253 52.7052 38.1253 52.4018C38.1253 52.0983 37.8793 51.8523 37.5758 51.8523C37.2724 51.8523 37.0264 52.0983 37.0264 52.4018C37.0264 52.7052 37.2724 52.9512 37.5758 52.9512Z" fill="#3DB18A" stroke="white" stroke-width="0.232819" stroke-miterlimit="10"/>
<path d="M54.3574 65.6189C54.6609 65.6189 54.9069 65.3729 54.9069 65.0695C54.9069 64.766 54.6609 64.52 54.3574 64.52C54.054 64.52 53.808 64.766 53.808 65.0695C53.808 65.3729 54.054 65.6189 54.3574 65.6189Z" fill="#3DB18A" stroke="white" stroke-width="0.232819" stroke-miterlimit="10"/>
<path d="M26.2584 49.5008C26.5619 49.5008 26.8079 49.2548 26.8079 48.9513C26.8079 48.6479 26.5619 48.4019 26.2584 48.4019C25.955 48.4019 25.709 48.6479 25.709 48.9513C25.709 49.2548 25.955 49.5008 26.2584 49.5008Z" fill="#3DB18A" stroke="white" stroke-width="0.232819" stroke-miterlimit="10"/>
<path d="M16.5802 39.1917C16.8837 39.1917 17.1297 38.9457 17.1297 38.6422C17.1297 38.3388 16.8837 38.0928 16.5802 38.0928C16.2768 38.0928 16.0308 38.3388 16.0308 38.6422C16.0308 38.9457 16.2768 39.1917 16.5802 39.1917Z" fill="#3DB18A" stroke="white" stroke-width="0.232819" stroke-miterlimit="10"/>
<path d="M4.83449 39.0752C5.13794 39.0752 5.38394 38.8292 5.38394 38.5258C5.38394 38.2223 5.13794 37.9763 4.83449 37.9763C4.53103 37.9763 4.28503 38.2223 4.28503 38.5258C4.28503 38.8292 4.53103 39.0752 4.83449 39.0752Z" fill="#3DB18A" stroke="white" stroke-width="0.232819" stroke-miterlimit="10"/>
<path d="M83.4016 39.1917C83.7051 39.1917 83.9511 38.9457 83.9511 38.6422C83.9511 38.3388 83.7051 38.0928 83.4016 38.0928C83.0982 38.0928 82.8522 38.3388 82.8522 38.6422C82.8522 38.9457 83.0982 39.1917 83.4016 39.1917Z" fill="#3DB18A" stroke="white" stroke-width="0.232819" stroke-miterlimit="10"/>
<path d="M71.4207 39.1917C71.7241 39.1917 71.9701 38.9457 71.9701 38.6422C71.9701 38.3388 71.7241 38.0928 71.4207 38.0928C71.1172 38.0928 70.8712 38.3388 70.8712 38.6422C70.8712 38.9457 71.1172 39.1917 71.4207 39.1917Z" fill="#3DB18A" stroke="white" stroke-width="0.232819" stroke-miterlimit="10"/>
<path d="M61.8589 49.3797C62.1624 49.3797 62.4084 49.1337 62.4084 48.8302C62.4084 48.5268 62.1624 48.2808 61.8589 48.2808C61.5554 48.2808 61.3094 48.5268 61.3094 48.8302C61.3094 49.1337 61.5554 49.3797 61.8589 49.3797Z" fill="#3DB18A" stroke="white" stroke-width="0.232819" stroke-miterlimit="10"/>
<path d="M35.1289 44.26C35.4324 44.26 35.6784 44.014 35.6784 43.7106C35.6784 43.4071 35.4324 43.1611 35.1289 43.1611C34.8255 43.1611 34.5795 43.4071 34.5795 43.7106C34.5795 44.014 34.8255 44.26 35.1289 44.26Z" fill="#3DB18A" stroke="white" stroke-width="0.232819" stroke-miterlimit="10"/>
<path d="M32.9312 24.7893C33.2346 24.7893 33.4806 24.5433 33.4806 24.2399C33.4806 23.9364 33.2346 23.6904 32.9312 23.6904C32.6277 23.6904 32.3817 23.9364 32.3817 24.2399C32.3817 24.5433 32.6277 24.7893 32.9312 24.7893Z" fill="#3DB18A" stroke="white" stroke-width="0.232819" stroke-miterlimit="10"/>
<path d="M36.9658 31.5132C37.2693 31.5132 37.5153 31.2672 37.5153 30.9638C37.5153 30.6603 37.2693 30.4143 36.9658 30.4143C36.6624 30.4143 36.4164 30.6603 36.4164 30.9638C36.4164 31.2672 36.6624 31.5132 36.9658 31.5132Z" fill="#3DB18A" stroke="white" stroke-width="0.232819" stroke-miterlimit="10"/>
<path d="M51.0351 31.5132C51.3385 31.5132 51.5845 31.2672 51.5845 30.9638C51.5845 30.6603 51.3385 30.4143 51.0351 30.4143C50.7316 30.4143 50.4856 30.6603 50.4856 30.9638C50.4856 31.2672 50.7316 31.5132 51.0351 31.5132Z" fill="#3DB18A" stroke="white" stroke-width="0.232819" stroke-miterlimit="10"/>
<path d="M15.1506 12.3848C15.4541 12.3848 15.7001 12.1388 15.7001 11.8353C15.7001 11.5319 15.4541 11.2859 15.1506 11.2859C14.8472 11.2859 14.6012 11.5319 14.6012 11.8353C14.6012 12.1388 14.8472 12.3848 15.1506 12.3848Z" fill="#3DB18A" stroke="white" stroke-width="0.232819" stroke-miterlimit="10"/>
<path d="M9.32325 19.9514C9.62671 19.9514 9.8727 19.7054 9.8727 19.402C9.8727 19.0985 9.62671 18.8525 9.32325 18.8525C9.0198 18.8525 8.7738 19.0985 8.7738 19.402C8.7738 19.7054 9.0198 19.9514 9.32325 19.9514Z" fill="#3DB18A" stroke="white" stroke-width="0.232819" stroke-miterlimit="10"/>
<path d="M4.71352 8.19876C5.01697 8.19876 5.26297 7.95276 5.26297 7.64931C5.26297 7.34585 5.01697 7.09985 4.71352 7.09985C4.41006 7.09985 4.16406 7.34585 4.16406 7.64931C4.16406 7.95276 4.41006 8.19876 4.71352 8.19876Z" fill="#3DB18A" stroke="white" stroke-width="0.232819" stroke-miterlimit="10"/>
<path d="M1.54945 13.6653C1.85291 13.6653 2.09891 13.4193 2.09891 13.1159C2.09891 12.8124 1.85291 12.5664 1.54945 12.5664C1.246 12.5664 1 12.8124 1 13.1159C1 13.4193 1.246 13.6653 1.54945 13.6653Z" fill="#3DB18A" stroke="white" stroke-width="0.232819" stroke-miterlimit="10"/>
<path d="M86.689 13.6653C86.9924 13.6653 87.2384 13.4193 87.2384 13.1159C87.2384 12.8124 86.9924 12.5664 86.689 12.5664C86.3855 12.5664 86.1395 12.8124 86.1395 13.1159C86.1395 13.4193 86.3855 13.6653 86.689 13.6653Z" fill="#3DB18A" stroke="white" stroke-width="0.232819" stroke-miterlimit="10"/>
<path d="M3.56337 21.3321C3.86682 21.3321 4.11282 21.0861 4.11282 20.7826C4.11282 20.4792 3.86682 20.2332 3.56337 20.2332C3.25991 20.2332 3.01392 20.4792 3.01392 20.7826C3.01392 21.0861 3.25991 21.3321 3.56337 21.3321Z" fill="#3DB18A" stroke="white" stroke-width="0.232819" stroke-miterlimit="10"/>
<path d="M73.0877 12.0264C73.3911 12.0264 73.6371 11.7804 73.6371 11.4769C73.6371 11.1735 73.3911 10.9275 73.0877 10.9275C72.7842 10.9275 72.5382 11.1735 72.5382 11.4769C72.5382 11.7804 72.7842 12.0264 73.0877 12.0264Z" fill="#3DB18A" stroke="white" stroke-width="0.232819" stroke-miterlimit="10"/>
<path d="M70.2217 24.1866C70.5251 24.1866 70.7711 23.9406 70.7711 23.6371C70.7711 23.3336 70.5251 23.0876 70.2217 23.0876C69.9182 23.0876 69.6722 23.3336 69.6722 23.6371C69.6722 23.9406 69.9182 24.1866 70.2217 24.1866Z" fill="#3DB18A" stroke="white" stroke-width="0.232819" stroke-miterlimit="10"/>
<path d="M74.5312 25.3645C74.8346 25.3645 75.0806 25.1185 75.0806 24.8151C75.0806 24.5116 74.8346 24.2656 74.5312 24.2656C74.2277 24.2656 73.9817 24.5116 73.9817 24.8151C73.9817 25.1185 74.2277 25.3645 74.5312 25.3645Z" fill="#3DB18A" stroke="#FF9400" stroke-width="0.232819" stroke-miterlimit="10"/>
<path d="M84.44 21.3321C84.7434 21.3321 84.9894 21.0861 84.9894 20.7826C84.9894 20.4792 84.7434 20.2332 84.44 20.2332C84.1365 20.2332 83.8905 20.4792 83.8905 20.7826C83.8905 21.0861 84.1365 21.3321 84.44 21.3321Z" fill="#3DB18A" stroke="white" stroke-width="0.232819" stroke-miterlimit="10"/>
<path d="M83.4016 8.33621C83.7051 8.33621 83.9511 8.09021 83.9511 7.78676C83.9511 7.4833 83.7051 7.2373 83.4016 7.2373C83.0982 7.2373 82.8522 7.4833 82.8522 7.78676C82.8522 8.09021 83.0982 8.33621 83.4016 8.33621Z" fill="#3DB18A" stroke="white" stroke-width="0.232819" stroke-miterlimit="10"/>
<path d="M13.4115 25.3645C13.715 25.3645 13.961 25.1185 13.961 24.8151C13.961 24.5116 13.715 24.2656 13.4115 24.2656C13.1081 24.2656 12.8621 24.5116 12.8621 24.8151C12.8621 25.1185 13.1081 25.3645 13.4115 25.3645Z" fill="#3DB18A" stroke="#FF9400" stroke-width="0.232819" stroke-miterlimit="10"/>
<path d="M65.4909 32.2769C65.7943 32.2769 66.0403 32.0309 66.0403 31.7274C66.0403 31.424 65.7943 31.178 65.4909 31.178C65.1874 31.178 64.9414 31.424 64.9414 31.7274C64.9414 32.0309 65.1874 32.2769 65.4909 32.2769Z" fill="#3DB18A" stroke="#FFC446" stroke-width="0.232819" stroke-miterlimit="10"/>
<path d="M22.5171 32.3863C22.8206 32.3863 23.0666 32.1403 23.0666 31.8368C23.0666 31.5334 22.8206 31.2874 22.5171 31.2874C22.2137 31.2874 21.9677 31.5334 21.9677 31.8368C21.9677 32.1403 22.2137 32.3863 22.5171 32.3863Z" fill="#3DB18A" stroke="#FFC446" stroke-width="0.232819" stroke-miterlimit="10"/>
<path d="M78.6776 19.9514C78.9811 19.9514 79.2271 19.7054 79.2271 19.402C79.2271 19.0985 78.9811 18.8525 78.6776 18.8525C78.3742 18.8525 78.1282 19.0985 78.1282 19.402C78.1282 19.7054 78.3742 19.9514 78.6776 19.9514Z" fill="#3DB18A" stroke="white" stroke-width="0.232819" stroke-miterlimit="10"/>
<path d="M26.1421 13.8445C26.4456 13.8445 26.6916 13.5985 26.6916 13.2951C26.6916 12.9916 26.4456 12.7456 26.1421 12.7456C25.8386 12.7456 25.5927 12.9916 25.5927 13.2951C25.5927 13.5985 25.8386 13.8445 26.1421 13.8445Z" fill="#3DB18A" stroke="white" stroke-width="0.232819" stroke-miterlimit="10"/>
<g filter="url(#filter0_d_592_12)">
<path d="M127.018 46.1928H124.138V30.6289H127.018V46.1928Z" fill="white"/>
</g>
<g filter="url(#filter1_d_592_12)">
<path d="M100.658 32.9084C97.6292 32.9084 95.6456 35.2832 95.6456 38.1841C95.6456 41.085 97.6618 43.4598 100.658 43.4598C103.655 43.4598 105.65 41.106 105.65 38.1841C105.65 35.2622 103.676 32.9084 100.658 32.9084ZM100.658 45.9067C96.1625 45.9067 92.8914 42.6891 92.8914 38.1818C92.8914 33.6744 96.1089 30.4778 100.658 30.4778C105.207 30.4778 108.383 33.6534 108.383 38.1818C108.383 42.7101 105.124 45.9067 100.658 45.9067Z" fill="white"/>
</g>
<g filter="url(#filter2_d_592_12)">
<path d="M157.913 33.1713C154.737 33.1713 152.646 35.6718 152.646 38.71C152.646 41.7483 154.756 44.2488 157.913 44.2488C161.07 44.2488 163.158 41.7786 163.158 38.71C163.158 35.6415 161.091 33.1713 157.913 33.1713ZM157.913 46.8052C153.196 46.8052 149.766 43.4293 149.766 38.7007C149.766 33.9722 153.142 30.6289 157.913 30.6289C162.683 30.6289 166.017 33.9629 166.017 38.7007C166.017 43.4386 162.588 46.8052 157.913 46.8052Z" fill="white"/>
</g>
<g filter="url(#filter3_d_592_12)">
<path d="M167.926 46.2861V31.4089L170.785 35.9675V46.2884H167.926V46.2861Z" fill="white"/>
</g>
<g filter="url(#filter4_d_592_12)">
<path d="M169.847 33.3715L168.031 30.5334H171.228L178.687 41.0848V30.5334H181.567V46.0974H178.687L171.228 35.567L169.845 33.3622V33.3738L169.847 33.3715Z" fill="white"/>
</g>
<g filter="url(#filter5_d_592_12)">
<path d="M147.615 42.8798V30.6289H144.777V42.8798H147.615Z" fill="white"/>
</g>
<g filter="url(#filter6_d_592_12)">
<path d="M121.267 31.8628L119.726 34.1514C119.726 34.1514 116.625 32.1352 114.122 33.1061C113.71 33.2644 113.384 33.581 113.247 34.0024C113.109 34.4238 113.214 34.5263 113.216 34.5938H110.218C110.218 34.5938 110.164 31.4275 113.889 30.6568C113.889 30.6568 117.826 29.7907 121.265 31.8605L121.267 31.8628Z" fill="white"/>
</g>
<g filter="url(#filter7_d_592_12)">
<path d="M113.267 35.283C113.267 35.283 113.535 35.9209 114.047 36.1071C114.047 36.1071 115.547 36.794 116.844 37.1944C116.844 37.1944 119.735 38.2188 120.706 39.0942C120.706 39.0942 122.184 39.9556 121.963 42.3118C121.938 42.5911 121.956 42.4002 121.884 42.7914C121.824 43.1173 121.721 43.3036 121.709 43.3152C121.33 44.2232 120.643 44.9612 119.8 45.4478C118.955 45.9321 118.639 46.0601 117.933 46.2068C117.933 46.2068 116.72 46.6399 113.933 46.1114C113.933 46.1114 111.759 45.7831 109.829 44.1277L111.507 41.9858C111.507 41.9858 113.407 43.6737 116.108 43.874C116.108 43.874 117.679 44.0113 118.566 43.1033C118.85 42.8193 118.988 42.4165 118.937 42.0161C118.885 41.6156 118.632 41.0662 117.903 40.5493C117.903 40.5493 116.923 39.9161 115.498 39.483C115.498 39.483 113.081 38.7333 112.248 38.2491C112.248 38.2491 110.623 37.511 110.243 35.283H113.272H113.267Z" fill="white"/>
</g>
<g filter="url(#filter8_d_592_12)">
<path fill-rule="evenodd" clip-rule="evenodd" d="M132.44 33.1922H136.799C138.223 33.1922 139.427 34.3749 139.427 35.8207C139.427 37.2665 138.223 38.5005 136.799 38.5005H132.44V33.1922ZM129.581 46.1928H132.44V40.7681H136.207L137.537 42.8775H140.682L139.069 40.2932C140.926 39.6599 142.307 37.8463 142.307 35.6927C142.307 33.5391 140.039 30.6382 137.253 30.6382H129.581V46.1928ZM141.031 43.4386H137.877L139.585 46.1812H142.74L141.031 43.4386Z" fill="white"/>
</g>
<g filter="url(#filter9_d_592_12)">
<path d="M147.615 46.1718H139.564L137.865 43.4502H147.625V46.1718H147.613H147.615Z" fill="white"/>
</g>
<g filter="url(#filter10_d_592_12)">
<path d="M127.018 46.1928H124.138V30.6289H127.018V46.1928Z" fill="white"/>
</g>
<g filter="url(#filter11_d_592_12)">
<path d="M100.658 32.9084C97.6292 32.9084 95.6456 35.2832 95.6456 38.1841C95.6456 41.085 97.6618 43.4598 100.658 43.4598C103.655 43.4598 105.65 41.106 105.65 38.1841C105.65 35.2622 103.676 32.9084 100.658 32.9084ZM100.658 45.9067C96.1625 45.9067 92.8914 42.6891 92.8914 38.1818C92.8914 33.6744 96.1089 30.4778 100.658 30.4778C105.207 30.4778 108.383 33.6534 108.383 38.1818C108.383 42.7101 105.124 45.9067 100.658 45.9067Z" fill="white"/>
</g>
<g filter="url(#filter12_d_592_12)">
<path d="M157.913 33.1713C154.737 33.1713 152.646 35.6718 152.646 38.71C152.646 41.7483 154.756 44.2488 157.913 44.2488C161.07 44.2488 163.158 41.7786 163.158 38.71C163.158 35.6415 161.091 33.1713 157.913 33.1713ZM157.913 46.8052C153.196 46.8052 149.766 43.4293 149.766 38.7007C149.766 33.9722 153.142 30.6289 157.913 30.6289C162.683 30.6289 166.017 33.9629 166.017 38.7007C166.017 43.4386 162.588 46.8052 157.913 46.8052Z" fill="white"/>
</g>
<g filter="url(#filter13_d_592_12)">
<path d="M167.926 46.2861V31.4089L170.785 35.9675V46.2884H167.926V46.2861Z" fill="white"/>
</g>
<g filter="url(#filter14_d_592_12)">
<path d="M169.847 33.3715L168.031 30.5334H171.228L178.687 41.0848V30.5334H181.567V46.0974H178.687L171.228 35.567L169.845 33.3622V33.3738L169.847 33.3715Z" fill="white"/>
</g>
<g filter="url(#filter15_d_592_12)">
<path d="M147.615 42.8798V30.6289H144.777V42.8798H147.615Z" fill="white"/>
</g>
<g filter="url(#filter16_d_592_12)">
<path d="M121.267 31.8628L119.726 34.1514C119.726 34.1514 116.625 32.1352 114.122 33.1061C113.71 33.2644 113.384 33.581 113.247 34.0024C113.109 34.4238 113.214 34.5263 113.216 34.5938H110.218C110.218 34.5938 110.164 31.4275 113.889 30.6568C113.889 30.6568 117.826 29.7907 121.265 31.8605L121.267 31.8628Z" fill="white"/>
</g>
<g filter="url(#filter17_d_592_12)">
<path d="M113.267 35.283C113.267 35.283 113.535 35.9209 114.047 36.1071C114.047 36.1071 115.547 36.794 116.844 37.1944C116.844 37.1944 119.735 38.2188 120.706 39.0942C120.706 39.0942 122.184 39.9556 121.963 42.3118C121.938 42.5911 121.956 42.4002 121.884 42.7914C121.824 43.1173 121.721 43.3036 121.709 43.3152C121.33 44.2232 120.643 44.9612 119.8 45.4478C118.955 45.9321 118.639 46.0601 117.933 46.2068C117.933 46.2068 116.72 46.6399 113.933 46.1114C113.933 46.1114 111.759 45.7831 109.829 44.1277L111.507 41.9858C111.507 41.9858 113.407 43.6737 116.108 43.874C116.108 43.874 117.679 44.0113 118.566 43.1033C118.85 42.8193 118.988 42.4165 118.937 42.0161C118.885 41.6156 118.632 41.0662 117.903 40.5493C117.903 40.5493 116.923 39.9161 115.498 39.483C115.498 39.483 113.081 38.7333 112.248 38.2491C112.248 38.2491 110.623 37.511 110.243 35.283H113.272H113.267Z" fill="white"/>
</g>
<g filter="url(#filter18_d_592_12)">
<path fill-rule="evenodd" clip-rule="evenodd" d="M132.44 33.1922H136.799C138.223 33.1922 139.427 34.3749 139.427 35.8207C139.427 37.2665 138.223 38.5005 136.799 38.5005H132.44V33.1922ZM129.581 46.1928H132.44V40.7681H136.207L137.537 42.8775H140.682L139.069 40.2932C140.926 39.6599 142.307 37.8463 142.307 35.6927C142.307 33.5391 140.039 30.6382 137.253 30.6382H129.581V46.1928ZM141.031 43.4386H137.877L139.585 46.1812H142.74L141.031 43.4386Z" fill="white"/>
</g>
<g filter="url(#filter19_d_592_12)">
<path d="M147.615 46.1718H139.564L137.865 43.4502H147.625V46.1718H147.613H147.615Z" fill="white"/>
</g>
<defs>
<filter id="filter0_d_592_12" x="121.498" y="27.9887" width="8.16034" height="20.8443" filterUnits="userSpaceOnUse" color-interpolation-filters="sRGB">
<feFlood flood-opacity="0" result="BackgroundImageFix"/>
<feColorMatrix in="SourceAlpha" type="matrix" values="0 0 0 0 0 0 0 0 0 0 0 0 0 0 0 0 0 0 127 0" result="hardAlpha"/>
<feOffset/>
<feGaussianBlur stdDeviation="1.32008"/>
<feColorMatrix type="matrix" values="0 0 0 0 0.239216 0 0 0 0 0.694118 0 0 0 0 0.541176 0 0 0 1 0"/>
<feBlend mode="normal" in2="BackgroundImageFix" result="effect1_dropShadow_592_12"/>
<feBlend mode="normal" in="SourceGraphic" in2="effect1_dropShadow_592_12" result="shape"/>
</filter>
<filter id="filter1_d_592_12" x="90.2512" y="27.8376" width="20.7722" height="20.7093" filterUnits="userSpaceOnUse" color-interpolation-filters="sRGB">
<feFlood flood-opacity="0" result="BackgroundImageFix"/>
<feColorMatrix in="SourceAlpha" type="matrix" values="0 0 0 0 0 0 0 0 0 0 0 0 0 0 0 0 0 0 127 0" result="hardAlpha"/>
<feOffset/>
<feGaussianBlur stdDeviation="1.32008"/>
<feColorMatrix type="matrix" values="0 0 0 0 0.239216 0 0 0 0 0.694118 0 0 0 0 0.541176 0 0 0 1 0"/>
<feBlend mode="normal" in2="BackgroundImageFix" result="effect1_dropShadow_592_12"/>
<feBlend mode="normal" in="SourceGraphic" in2="effect1_dropShadow_592_12" result="shape"/>
</filter>
<filter id="filter2_d_592_12" x="147.126" y="27.9887" width="21.5311" height="21.4566" filterUnits="userSpaceOnUse" color-interpolation-filters="sRGB">
<feFlood flood-opacity="0" result="BackgroundImageFix"/>
<feColorMatrix in="SourceAlpha" type="matrix" values="0 0 0 0 0 0 0 0 0 0 0 0 0 0 0 0 0 0 127 0" result="hardAlpha"/>
<feOffset/>
<feGaussianBlur stdDeviation="1.32008"/>
<feColorMatrix type="matrix" values="0 0 0 0 0.239216 0 0 0 0 0.694118 0 0 0 0 0.541176 0 0 0 1 0"/>
<feBlend mode="normal" in2="BackgroundImageFix" result="effect1_dropShadow_592_12"/>
<feBlend mode="normal" in="SourceGraphic" in2="effect1_dropShadow_592_12" result="shape"/>
</filter>
<filter id="filter3_d_592_12" x="165.286" y="28.7688" width="8.13934" height="20.1597" filterUnits="userSpaceOnUse" color-interpolation-filters="sRGB">
<feFlood flood-opacity="0" result="BackgroundImageFix"/>
<feColorMatrix in="SourceAlpha" type="matrix" values="0 0 0 0 0 0 0 0 0 0 0 0 0 0 0 0 0 0 127 0" result="hardAlpha"/>
<feOffset/>
<feGaussianBlur stdDeviation="1.32008"/>
<feColorMatrix type="matrix" values="0 0 0 0 0.239216 0 0 0 0 0.694118 0 0 0 0 0.541176 0 0 0 1 0"/>
<feBlend mode="normal" in2="BackgroundImageFix" result="effect1_dropShadow_592_12"/>
<feBlend mode="normal" in="SourceGraphic" in2="effect1_dropShadow_592_12" result="shape"/>
</filter>
<filter id="filter4_d_592_12" x="165.391" y="27.8933" width="18.8165" height="20.8443" filterUnits="userSpaceOnUse" color-interpolation-filters="sRGB">
<feFlood flood-opacity="0" result="BackgroundImageFix"/>
<feColorMatrix in="SourceAlpha" type="matrix" values="0 0 0 0 0 0 0 0 0 0 0 0 0 0 0 0 0 0 127 0" result="hardAlpha"/>
<feOffset/>
<feGaussianBlur stdDeviation="1.32008"/>
<feColorMatrix type="matrix" values="0 0 0 0 0.239216 0 0 0 0 0.694118 0 0 0 0 0.541176 0 0 0 1 0"/>
<feBlend mode="normal" in2="BackgroundImageFix" result="effect1_dropShadow_592_12"/>
<feBlend mode="normal" in="SourceGraphic" in2="effect1_dropShadow_592_12" result="shape"/>
</filter>
<filter id="filter5_d_592_12" x="142.137" y="27.9887" width="8.11834" height="17.5313" filterUnits="userSpaceOnUse" color-interpolation-filters="sRGB">
<feFlood flood-opacity="0" result="BackgroundImageFix"/>
<feColorMatrix in="SourceAlpha" type="matrix" values="0 0 0 0 0 0 0 0 0 0 0 0 0 0 0 0 0 0 127 0" result="hardAlpha"/>
<feOffset/>
<feGaussianBlur stdDeviation="1.32008"/>
<feColorMatrix type="matrix" values="0 0 0 0 0.239216 0 0 0 0 0.694118 0 0 0 0 0.541176 0 0 0 1 0"/>
<feBlend mode="normal" in2="BackgroundImageFix" result="effect1_dropShadow_592_12"/>
<feBlend mode="normal" in="SourceGraphic" in2="effect1_dropShadow_592_12" result="shape"/>
</filter>
<filter id="filter6_d_592_12" x="107.577" y="27.8369" width="16.3299" height="9.39703" filterUnits="userSpaceOnUse" color-interpolation-filters="sRGB">
<feFlood flood-opacity="0" result="BackgroundImageFix"/>
<feColorMatrix in="SourceAlpha" type="matrix" values="0 0 0 0 0 0 0 0 0 0 0 0 0 0 0 0 0 0 127 0" result="hardAlpha"/>
<feOffset/>
<feGaussianBlur stdDeviation="1.32008"/>
<feColorMatrix type="matrix" values="0 0 0 0 0.239216 0 0 0 0 0.694118 0 0 0 0 0.541176 0 0 0 1 0"/>
<feBlend mode="normal" in2="BackgroundImageFix" result="effect1_dropShadow_592_12"/>
<feBlend mode="normal" in="SourceGraphic" in2="effect1_dropShadow_592_12" result="shape"/>
</filter>
<filter id="filter7_d_592_12" x="107.189" y="32.6428" width="17.4374" height="16.3712" filterUnits="userSpaceOnUse" color-interpolation-filters="sRGB">
<feFlood flood-opacity="0" result="BackgroundImageFix"/>
<feColorMatrix in="SourceAlpha" type="matrix" values="0 0 0 0 0 0 0 0 0 0 0 0 0 0 0 0 0 0 127 0" result="hardAlpha"/>
<feOffset/>
<feGaussianBlur stdDeviation="1.32008"/>
<feColorMatrix type="matrix" values="0 0 0 0 0.239216 0 0 0 0 0.694118 0 0 0 0 0.541176 0 0 0 1 0"/>
<feBlend mode="normal" in2="BackgroundImageFix" result="effect1_dropShadow_592_12"/>
<feBlend mode="normal" in="SourceGraphic" in2="effect1_dropShadow_592_12" result="shape"/>
</filter>
<filter id="filter8_d_592_12" x="126.941" y="27.998" width="18.4393" height="20.835" filterUnits="userSpaceOnUse" color-interpolation-filters="sRGB">
<feFlood flood-opacity="0" result="BackgroundImageFix"/>
<feColorMatrix in="SourceAlpha" type="matrix" values="0 0 0 0 0 0 0 0 0 0 0 0 0 0 0 0 0 0 127 0" result="hardAlpha"/>
<feOffset/>
<feGaussianBlur stdDeviation="1.32008"/>
<feColorMatrix type="matrix" values="0 0 0 0 0.239216 0 0 0 0 0.694118 0 0 0 0 0.541176 0 0 0 1 0"/>
<feBlend mode="normal" in2="BackgroundImageFix" result="effect1_dropShadow_592_12"/>
<feBlend mode="normal" in="SourceGraphic" in2="effect1_dropShadow_592_12" result="shape"/>
</filter>
<filter id="filter9_d_592_12" x="135.225" y="40.81" width="15.0401" height="8.00201" filterUnits="userSpaceOnUse" color-interpolation-filters="sRGB">
<feFlood flood-opacity="0" result="BackgroundImageFix"/>
<feColorMatrix in="SourceAlpha" type="matrix" values="0 0 0 0 0 0 0 0 0 0 0 0 0 0 0 0 0 0 127 0" result="hardAlpha"/>
<feOffset/>
<feGaussianBlur stdDeviation="1.32008"/>
<feColorMatrix type="matrix" values="0 0 0 0 0.239216 0 0 0 0 0.694118 0 0 0 0 0.541176 0 0 0 1 0"/>
<feBlend mode="normal" in2="BackgroundImageFix" result="effect1_dropShadow_592_12"/>
<feBlend mode="normal" in="SourceGraphic" in2="effect1_dropShadow_592_12" result="shape"/>
</filter>
<filter id="filter10_d_592_12" x="122.82" y="29.3112" width="5.51551" height="18.1995" filterUnits="userSpaceOnUse" color-interpolation-filters="sRGB">
<feFlood flood-opacity="0" result="BackgroundImageFix"/>
<feColorMatrix in="SourceAlpha" type="matrix" values="0 0 0 0 0 0 0 0 0 0 0 0 0 0 0 0 0 0 127 0" result="hardAlpha"/>
<feOffset/>
<feGaussianBlur stdDeviation="0.658877"/>
<feColorMatrix type="matrix" values="0 0 0 0 0.239216 0 0 0 0 0.694118 0 0 0 0 0.541176 0 0 0 1 0"/>
<feBlend mode="normal" in2="BackgroundImageFix" result="effect1_dropShadow_592_12"/>
<feBlend mode="normal" in="SourceGraphic" in2="effect1_dropShadow_592_12" result="shape"/>
</filter>
<filter id="filter11_d_592_12" x="91.5736" y="29.16" width="18.1273" height="18.0645" filterUnits="userSpaceOnUse" color-interpolation-filters="sRGB">
<feFlood flood-opacity="0" result="BackgroundImageFix"/>
<feColorMatrix in="SourceAlpha" type="matrix" values="0 0 0 0 0 0 0 0 0 0 0 0 0 0 0 0 0 0 127 0" result="hardAlpha"/>
<feOffset/>
<feGaussianBlur stdDeviation="0.658877"/>
<feColorMatrix type="matrix" values="0 0 0 0 0.239216 0 0 0 0 0.694118 0 0 0 0 0.541176 0 0 0 1 0"/>
<feBlend mode="normal" in2="BackgroundImageFix" result="effect1_dropShadow_592_12"/>
<feBlend mode="normal" in="SourceGraphic" in2="effect1_dropShadow_592_12" result="shape"/>
</filter>
<filter id="filter12_d_592_12" x="148.449" y="29.3112" width="18.8862" height="18.8118" filterUnits="userSpaceOnUse" color-interpolation-filters="sRGB">
<feFlood flood-opacity="0" result="BackgroundImageFix"/>
<feColorMatrix in="SourceAlpha" type="matrix" values="0 0 0 0 0 0 0 0 0 0 0 0 0 0 0 0 0 0 127 0" result="hardAlpha"/>
<feOffset/>
<feGaussianBlur stdDeviation="0.658877"/>
<feColorMatrix type="matrix" values="0 0 0 0 0.239216 0 0 0 0 0.694118 0 0 0 0 0.541176 0 0 0 1 0"/>
<feBlend mode="normal" in2="BackgroundImageFix" result="effect1_dropShadow_592_12"/>
<feBlend mode="normal" in="SourceGraphic" in2="effect1_dropShadow_592_12" result="shape"/>
</filter>
<filter id="filter13_d_592_12" x="166.609" y="30.0912" width="5.49452" height="17.5149" filterUnits="userSpaceOnUse" color-interpolation-filters="sRGB">
<feFlood flood-opacity="0" result="BackgroundImageFix"/>
<feColorMatrix in="SourceAlpha" type="matrix" values="0 0 0 0 0 0 0 0 0 0 0 0 0 0 0 0 0 0 127 0" result="hardAlpha"/>
<feOffset/>
<feGaussianBlur stdDeviation="0.658877"/>
<feColorMatrix type="matrix" values="0 0 0 0 0.239216 0 0 0 0 0.694118 0 0 0 0 0.541176 0 0 0 1 0"/>
<feBlend mode="normal" in2="BackgroundImageFix" result="effect1_dropShadow_592_12"/>
<feBlend mode="normal" in="SourceGraphic" in2="effect1_dropShadow_592_12" result="shape"/>
</filter>
<filter id="filter14_d_592_12" x="166.713" y="29.2157" width="16.1716" height="18.1995" filterUnits="userSpaceOnUse" color-interpolation-filters="sRGB">
<feFlood flood-opacity="0" result="BackgroundImageFix"/>
<feColorMatrix in="SourceAlpha" type="matrix" values="0 0 0 0 0 0 0 0 0 0 0 0 0 0 0 0 0 0 127 0" result="hardAlpha"/>
<feOffset/>
<feGaussianBlur stdDeviation="0.658877"/>
<feColorMatrix type="matrix" values="0 0 0 0 0.239216 0 0 0 0 0.694118 0 0 0 0 0.541176 0 0 0 1 0"/>
<feBlend mode="normal" in2="BackgroundImageFix" result="effect1_dropShadow_592_12"/>
<feBlend mode="normal" in="SourceGraphic" in2="effect1_dropShadow_592_12" result="shape"/>
</filter>
<filter id="filter15_d_592_12" x="143.459" y="29.3112" width="5.47352" height="14.8865" filterUnits="userSpaceOnUse" color-interpolation-filters="sRGB">
<feFlood flood-opacity="0" result="BackgroundImageFix"/>
<feColorMatrix in="SourceAlpha" type="matrix" values="0 0 0 0 0 0 0 0 0 0 0 0 0 0 0 0 0 0 127 0" result="hardAlpha"/>
<feOffset/>
<feGaussianBlur stdDeviation="0.658877"/>
<feColorMatrix type="matrix" values="0 0 0 0 0.239216 0 0 0 0 0.694118 0 0 0 0 0.541176 0 0 0 1 0"/>
<feBlend mode="normal" in2="BackgroundImageFix" result="effect1_dropShadow_592_12"/>
<feBlend mode="normal" in="SourceGraphic" in2="effect1_dropShadow_592_12" result="shape"/>
</filter>
<filter id="filter16_d_592_12" x="108.9" y="29.1593" width="13.6851" height="6.75221" filterUnits="userSpaceOnUse" color-interpolation-filters="sRGB">
<feFlood flood-opacity="0" result="BackgroundImageFix"/>
<feColorMatrix in="SourceAlpha" type="matrix" values="0 0 0 0 0 0 0 0 0 0 0 0 0 0 0 0 0 0 127 0" result="hardAlpha"/>
<feOffset/>
<feGaussianBlur stdDeviation="0.658877"/>
<feColorMatrix type="matrix" values="0 0 0 0 0.239216 0 0 0 0 0.694118 0 0 0 0 0.541176 0 0 0 1 0"/>
<feBlend mode="normal" in2="BackgroundImageFix" result="effect1_dropShadow_592_12"/>
<feBlend mode="normal" in="SourceGraphic" in2="effect1_dropShadow_592_12" result="shape"/>
</filter>
<filter id="filter17_d_592_12" x="108.511" y="33.9652" width="14.7926" height="13.7263" filterUnits="userSpaceOnUse" color-interpolation-filters="sRGB">
<feFlood flood-opacity="0" result="BackgroundImageFix"/>
<feColorMatrix in="SourceAlpha" type="matrix" values="0 0 0 0 0 0 0 0 0 0 0 0 0 0 0 0 0 0 127 0" result="hardAlpha"/>
<feOffset/>
<feGaussianBlur stdDeviation="0.658877"/>
<feColorMatrix type="matrix" values="0 0 0 0 0.239216 0 0 0 0 0.694118 0 0 0 0 0.541176 0 0 0 1 0"/>
<feBlend mode="normal" in2="BackgroundImageFix" result="effect1_dropShadow_592_12"/>
<feBlend mode="normal" in="SourceGraphic" in2="effect1_dropShadow_592_12" result="shape"/>
</filter>
<filter id="filter18_d_592_12" x="128.263" y="29.3204" width="15.7944" height="18.1902" filterUnits="userSpaceOnUse" color-interpolation-filters="sRGB">
<feFlood flood-opacity="0" result="BackgroundImageFix"/>
<feColorMatrix in="SourceAlpha" type="matrix" values="0 0 0 0 0 0 0 0 0 0 0 0 0 0 0 0 0 0 127 0" result="hardAlpha"/>
<feOffset/>
<feGaussianBlur stdDeviation="0.658877"/>
<feColorMatrix type="matrix" values="0 0 0 0 0.239216 0 0 0 0 0.694118 0 0 0 0 0.541176 0 0 0 1 0"/>
<feBlend mode="normal" in2="BackgroundImageFix" result="effect1_dropShadow_592_12"/>
<feBlend mode="normal" in="SourceGraphic" in2="effect1_dropShadow_592_12" result="shape"/>
</filter>
<filter id="filter19_d_592_12" x="136.547" y="42.1324" width="12.3953" height="5.35719" filterUnits="userSpaceOnUse" color-interpolation-filters="sRGB">
<feFlood flood-opacity="0" result="BackgroundImageFix"/>
<feColorMatrix in="SourceAlpha" type="matrix" values="0 0 0 0 0 0 0 0 0 0 0 0 0 0 0 0 0 0 127 0" result="hardAlpha"/>
<feOffset/>
<feGaussianBlur stdDeviation="0.658877"/>
<feColorMatrix type="matrix" values="0 0 0 0 0.239216 0 0 0 0 0.694118 0 0 0 0 0.541176 0 0 0 1 0"/>
<feBlend mode="normal" in2="BackgroundImageFix" result="effect1_dropShadow_592_12"/>
<feBlend mode="normal" in="SourceGraphic" in2="effect1_dropShadow_592_12" result="shape"/>
</filter>
<linearGradient id="paint0_linear_592_12" x1="24.687" y1="30.4446" x2="31.5644" y2="42.3603" gradientUnits="userSpaceOnUse">
<stop stop-color="#F39619"/>
<stop offset="1" stop-color="#012119"/>
</linearGradient>
<linearGradient id="paint1_linear_592_12" x1="24.6264" y1="36.2067" x2="33.0987" y2="36.2067" gradientUnits="userSpaceOnUse">
<stop stop-color="#041617"/>
<stop offset="1" stop-color="#1D1D1C"/>
</linearGradient>
<linearGradient id="paint2_linear_592_12" x1="63.3256" y1="30.377" x2="56.4458" y2="42.2927" gradientUnits="userSpaceOnUse">
<stop stop-color="#F39619"/>
<stop offset="1" stop-color="#012119"/>
</linearGradient>
<linearGradient id="paint3_linear_592_12" x1="54.9139" y1="36.1394" x2="63.3862" y2="36.1394" gradientUnits="userSpaceOnUse">
<stop stop-color="#1D1D1B"/>
<stop offset="1" stop-color="#041617"/>
</linearGradient>
<linearGradient id="paint4_linear_592_12" x1="28.766" y1="41.6759" x2="28.766" y2="24.3891" gradientUnits="userSpaceOnUse">
<stop offset="0.1" stop-color="#3DB18A"/>
<stop offset="0.56" stop-color="#FBC247"/>
<stop offset="1" stop-color="#EA6A1C"/>
</linearGradient>
<linearGradient id="paint5_linear_592_12" x1="59.3025" y1="41.671" x2="59.3025" y2="24.3819" gradientUnits="userSpaceOnUse">
<stop offset="0.1" stop-color="#3DB18A"/>
<stop offset="0.56" stop-color="#FBC247"/>
<stop offset="1" stop-color="#EA6A1C"/>
</linearGradient>
</defs>
</svg>
