<svg width="382" height="382" viewBox="0 0 382 382" fill="none" xmlns="http://www.w3.org/2000/svg">
<circle cx="190.855" cy="191.065" r="190.855" fill="#031718"/>
<path d="M232.473 104.872L232.475 104.872C235.519 104.871 238.452 106.021 240.684 108.091C242.888 110.135 244.249 112.927 244.503 115.919L244.54 117.042V262.728V262.73C244.541 265.774 243.391 268.706 241.321 270.938C239.277 273.142 236.485 274.503 233.493 274.757L232.37 274.795H141.355H141.353C138.309 274.795 135.377 273.646 133.145 271.576C130.941 269.532 129.58 266.74 129.326 263.748L129.288 262.625L129.288 116.939L129.288 116.937C129.287 113.893 130.437 110.961 132.507 108.729C134.551 106.525 137.343 105.164 140.335 104.91L141.458 104.872L232.473 104.872ZM238.63 116.939V110.783H232.473H141.355H135.199V116.939V262.728V268.884H141.355H232.473H238.63V262.728V116.939ZM189.869 232.437V238.347H183.959V232.437H189.869Z" fill="black" stroke="white" stroke-width="12.3132"/>
</svg>
