<svg width="382" height="382" viewBox="0 0 382 382" fill="none" xmlns="http://www.w3.org/2000/svg">
<circle cx="190.855" cy="190.855" r="190.855" fill="#031718"/>
<path d="M190.1 98.5056C153.128 98.5056 123.132 127.055 123.132 162.218C123.132 202.678 167.777 266.795 184.17 288.941C184.851 289.876 185.743 290.636 186.773 291.161C187.804 291.685 188.943 291.959 190.1 291.959C191.256 291.959 192.396 291.685 193.426 291.161C194.457 290.636 195.349 289.876 196.029 288.941C212.422 266.804 257.068 202.71 257.068 162.218C257.068 127.055 227.072 98.5056 190.1 98.5056Z" stroke="white" stroke-width="12.3132" stroke-linecap="round" stroke-linejoin="round"/>
<path d="M190.099 187.795C202.428 187.795 212.422 177.801 212.422 165.473C212.422 153.144 202.428 143.15 190.099 143.15C177.771 143.15 167.777 153.144 167.777 165.473C167.777 177.801 177.771 187.795 190.099 187.795Z" stroke="white" stroke-width="12.3132" stroke-linecap="round" stroke-linejoin="round"/>
</svg>
